<svg width="653" height="84" viewBox="0 0 653 84" fill="none" xmlns="http://www.w3.org/2000/svg">
<path d="M40 80C17.9086 80 -4.10853e-06 62.0914 -6.03982e-06 40C-7.97111e-06 17.9086 17.9086 5.4282e-06 40 3.49691e-06C62.0914 1.56562e-06 80 17.9086 80 40C80 62.0914 62.0914 80 40 80Z" fill="#5FF0BD"/>
<path d="M23.2443 68.7885C39.0736 77.9279 59.3147 72.504 68.4534 56.675C77.5927 40.8458 72.1689 20.6049 56.3398 11.4658C43.9289 32.962 40.2884 39.2675 23.2443 68.7885Z" fill="#021B12"/>
<path d="M56.3398 11.4659C40.5103 2.32677 20.2694 7.75032 11.1304 23.5796C1.99135 39.4089 7.41484 59.6497 23.2441 68.7891C35.655 47.2927 39.2954 40.9872 56.3398 11.4659Z" fill="#5FF0BD"/>
<path d="M37.8062 43.5653C45.7208 48.1349 55.8411 45.4231 60.4108 37.5085C64.9805 29.5938 62.2682 19.4734 54.354 14.9038C47.1969 27.2999 44.7975 31.4558 37.8062 43.5653Z" fill="#5FF0BD"/>
<path d="M54.3538 14.9043C46.4389 10.3348 36.3184 13.0466 31.7489 20.9612C27.1794 28.8759 29.8911 38.9963 37.8058 43.5658C44.9627 31.1697 47.3621 27.0138 54.3538 14.9043Z" fill="#021B12"/>
<path d="M108.18 57.76V22.04L116.92 13.3H142.912L151.5 21.888V30.02H141.164V25.688L137.592 22.116H122.392L118.516 25.992V53.808L122.392 57.684H137.592L141.164 54.112V49.78H151.5V57.912L142.912 66.5H116.92L108.18 57.76ZM157.601 58.596V36.556L165.429 28.652H187.165L194.993 36.556V58.596L187.165 66.5H165.429L157.601 58.596ZM182.301 58.14L184.961 55.48V39.672L182.301 37.012H170.293L167.633 39.672V55.48L170.293 58.14H182.301ZM203.717 12.236H213.749V66.5H203.717V12.236ZM222.468 58.596V36.556L230.296 28.652H252.032L259.86 36.556V58.596L252.032 66.5H230.296L222.468 58.596ZM247.168 58.14L249.828 55.48V39.672L247.168 37.012H235.16L232.5 39.672V55.48L235.16 58.14H247.168ZM268.205 28.652H277.477V34.96L283.557 28.652H294.349V37.164H285.609L278.237 44.764V66.5H268.205V28.652ZM298.542 58.292V50.692H308.726V55.176L311.234 57.684H326.966L329.55 55.1V46.284L327.042 43.776H306.902L298.694 35.568V21.508L306.902 13.3H330.918L339.126 21.508V29.184H328.942V24.624L326.434 22.116H311.386L308.878 24.624V32.452L311.386 34.96H331.526L339.734 43.168V58.14L331.374 66.5H306.75L298.542 58.292ZM383.641 28.652V75.164L375.433 83.296H355.521L348.453 76.304V71.136H358.485V73.416L359.929 74.936H371.025L373.609 72.276V60.876L367.985 66.5H355.445L347.313 58.292V28.652H357.345V55.328L359.929 57.988H366.541L373.609 50.464V28.652H383.641ZM390.844 59.052V54.416H400.724V56.544L402.396 58.292H414.708L416.38 56.544V53.276L414.632 51.452H398.292L391.148 44.232V35.948L398.368 28.652H418.128L425.5 36.1V40.736H415.62V38.608L413.948 36.86H402.7L401.028 38.608V41.572L402.776 43.396H419.116L426.26 50.616V59.204L419.04 66.5H398.216L390.844 59.052ZM436.91 58.748V37.088H430.07V28.652H437.062V16.34H446.942V28.652H458.494V37.164H446.942V55.48L449.526 57.988H458.494V66.5H444.738L436.91 58.748ZM463.085 58.748V36.556L470.913 28.652H492.269L500.173 36.556V50.92H473.117V55.784L475.549 58.292H487.937L490.217 55.936V53.96H500.097V58.9L492.573 66.5H470.761L463.085 58.748ZM490.141 43.928V39.52L487.557 36.86H475.701L473.117 39.52V43.928H490.141ZM508.154 28.652H517.426V34.884L523.582 28.652H533.158L538.326 33.896L543.494 28.652H556.718L564.85 36.86V66.5H554.818V39.824L552.234 37.164H545.85L541.822 41.192V66.5H532.094V39.672L529.662 37.164H525.102L518.186 44.156V66.5H508.154V28.652ZM572.095 63.232V58.368L575.363 55.1H580.911L584.103 58.444V63.156L580.911 66.5H575.363L572.095 63.232ZM591.344 20.748V15.884L594.84 12.388H600.16L603.656 15.884V20.748L600.16 24.244H594.84L591.344 20.748ZM592.484 28.652H602.516V66.5H592.484V28.652ZM611.671 58.596V36.556L619.499 28.652H641.235L649.063 36.556V58.596L641.235 66.5H619.499L611.671 58.596ZM636.371 58.14L639.031 55.48V39.672L636.371 37.012H624.363L621.703 39.672V55.48L624.363 58.14H636.371Z" fill="white"/>
</svg>
