<svg width="700" height="320" viewBox="0 0 700 320" fill="none" xmlns="http://www.w3.org/2000/svg">
<g clip-path="url(#clip0_208_2831)">
<mask id="mask0_208_2831" style="mask-type:alpha" maskUnits="userSpaceOnUse" x="0" y="0" width="700" height="320">
<path d="M684 0H16C7.16344 0 0 7.16344 0 16V304C0 312.837 7.16344 320 16 320H684C692.837 320 700 312.837 700 304V16C700 7.16344 692.837 0 684 0Z" fill="black"/>
</mask>
<g mask="url(#mask0_208_2831)">
<path d="M684 0H16C7.16344 0 0 7.16344 0 16V304C0 312.837 7.16344 320 16 320H684C692.837 320 700 312.837 700 304V16C700 7.16344 692.837 0 684 0Z" fill="#021311"/>
<path d="M684 0H16C7.16344 0 0 7.16344 0 16V304C0 312.837 7.16344 320 16 320H684C692.837 320 700 312.837 700 304V16C700 7.16344 692.837 0 684 0Z" fill="url(#paint0_linear_208_2831)"/>
<g opacity="0.8" filter="url(#filter0_f_208_2831)">
<path d="M660 100C748.366 100 820 28.3656 820 -60C820 -148.366 748.366 -220 660 -220C571.634 -220 500 -148.366 500 -60C500 28.3656 571.634 100 660 100Z" fill="#3B0F58"/>
</g>
<g opacity="0.8" filter="url(#filter1_f_208_2831)">
<path d="M20 373C108.366 373 180 301.366 180 213C180 124.634 108.366 53 20 53C-68.3656 53 -140 124.634 -140 213C-140 301.366 -68.3656 373 20 373Z" fill="#3F9B73"/>
</g>
<g opacity="0.8" filter="url(#filter2_f_208_2831)">
</g>
<g opacity="0.8" filter="url(#filter3_f_208_2831)">
<path d="M20 573C108.366 573 180 501.366 180 413C180 324.634 108.366 253 20 253C-68.3656 253 -140 324.634 -140 413C-140 501.366 -68.3656 573 20 573Z" fill="#005546"/>
</g>
<path d="M350 270.21C288.696 270.21 239 220.914 239 160.105C239 99.2956 288.696 50 350 50C411.304 50 461 99.2956 461 160.105C461 220.914 411.304 270.21 350 270.21Z" fill="#5FF0BD"/>
<path d="M303.503 239.349C347.43 264.506 403.599 249.577 428.959 206.005C454.32 162.433 439.269 106.718 395.344 81.5615C360.903 140.732 350.801 158.089 303.503 239.349Z" fill="#021B12"/>
<path d="M395.344 81.5611C351.417 56.4046 295.248 71.3336 269.887 114.906C244.527 158.478 259.577 214.193 303.503 239.35C337.943 180.179 348.045 162.822 395.344 81.5611Z" fill="#5FF0BD"/>
<path d="M343.912 169.918C365.875 182.496 393.959 175.032 406.64 153.245C419.321 131.459 411.794 103.602 389.832 91.0234C369.972 125.145 363.313 136.585 343.912 169.918Z" fill="#5FF0BD"/>
<path d="M389.832 91.0271C367.868 78.4489 339.784 85.9134 327.103 107.699C314.423 129.485 321.948 157.343 343.911 169.921C363.771 135.8 370.43 124.36 389.832 91.0271Z" fill="#021B12"/>
<path opacity="0.5" d="M350 271C411.304 271 461 221.304 461 160C461 98.6964 411.304 49 350 49C288.696 49 239 98.6964 239 160C239 221.304 288.696 271 350 271Z" stroke="url(#paint1_radial_208_2831)"/>
<path opacity="0.5" d="M349.5 252C400.034 252 441 211.034 441 160.5C441 109.966 400.034 69 349.5 69C298.966 69 258 109.966 258 160.5C258 211.034 298.966 252 349.5 252Z" stroke="url(#paint2_radial_208_2831)"/>
<path opacity="0.5" d="M708.349 380.09L-26.3496 -44.0889" stroke="url(#paint3_radial_208_2831)"/>
<path opacity="0.5" d="M236.156 357.184L463.844 -37.1835" stroke="url(#paint4_radial_208_2831)"/>
<path opacity="0.4" d="M0 160H700" stroke="url(#paint5_radial_208_2831)"/>
<path opacity="0.2" d="M258 0V320" stroke="#CFE8D9" stroke-dasharray="4 4"/>
<path opacity="0.2" d="M461 0V320" stroke="#CFE8D9" stroke-dasharray="4 4"/>
<path opacity="0.4" d="M350 0V320" stroke="#CFE8D9"/>
<path opacity="0.2" d="M441 0V320" stroke="#CFE8D9" stroke-dasharray="4 4"/>
<path opacity="0.2" d="M239 0V320" stroke="#CFE8D9" stroke-dasharray="4 4"/>
<path opacity="0.2" d="M0 50H700" stroke="#CFE8D9" stroke-dasharray="4 4"/>
<path opacity="0.2" d="M0 69H700" stroke="#CFE8D9" stroke-dasharray="4 4"/>
<path opacity="0.2" d="M0 271H700" stroke="#CFE8D9" stroke-dasharray="4 4"/>
<path opacity="0.2" d="M0 252H700" stroke="#CFE8D9" stroke-dasharray="4 4"/>
</g>
</g>
<defs>
<filter id="filter0_f_208_2831" x="260" y="-460" width="800" height="800" filterUnits="userSpaceOnUse" color-interpolation-filters="sRGB">
<feFlood flood-opacity="0" result="BackgroundImageFix"/>
<feBlend mode="normal" in="SourceGraphic" in2="BackgroundImageFix" result="shape"/>
<feGaussianBlur stdDeviation="120" result="effect1_foregroundBlur_208_2831"/>
</filter>
<filter id="filter1_f_208_2831" x="-380" y="-187" width="800" height="800" filterUnits="userSpaceOnUse" color-interpolation-filters="sRGB">
<feFlood flood-opacity="0" result="BackgroundImageFix"/>
<feBlend mode="normal" in="SourceGraphic" in2="BackgroundImageFix" result="shape"/>
<feGaussianBlur stdDeviation="120" result="effect1_foregroundBlur_208_2831"/>
</filter>
<filter id="filter2_f_208_2831" x="260" y="80" width="800" height="800" filterUnits="userSpaceOnUse" color-interpolation-filters="sRGB">
<feFlood flood-opacity="0" result="BackgroundImageFix"/>
<feBlend mode="normal" in="SourceGraphic" in2="BackgroundImageFix" result="shape"/>
<feGaussianBlur stdDeviation="120" result="effect1_foregroundBlur_208_2831"/>
</filter>
<filter id="filter3_f_208_2831" x="-380" y="13" width="800" height="800" filterUnits="userSpaceOnUse" color-interpolation-filters="sRGB">
<feFlood flood-opacity="0" result="BackgroundImageFix"/>
<feBlend mode="normal" in="SourceGraphic" in2="BackgroundImageFix" result="shape"/>
<feGaussianBlur stdDeviation="120" result="effect1_foregroundBlur_208_2831"/>
</filter>
<linearGradient id="paint0_linear_208_2831" x1="1.27814e-05" y1="320" x2="710.784" y2="26.0793" gradientUnits="userSpaceOnUse">
<stop stop-color="#138D62" stop-opacity="0.09"/>
<stop offset="0.729167" stop-color="#007355" stop-opacity="0.09"/>
</linearGradient>
<radialGradient id="paint1_radial_208_2831" cx="0" cy="0" r="1" gradientUnits="userSpaceOnUse" gradientTransform="translate(263 76) rotate(47.663) scale(243.508)">
<stop stop-color="#02886B"/>
<stop offset="1" stop-color="#09DF93" stop-opacity="0.65"/>
</radialGradient>
<radialGradient id="paint2_radial_208_2831" cx="0" cy="0" r="1" gradientUnits="userSpaceOnUse" gradientTransform="translate(277.784 91.2565) rotate(47.663) scale(200.729)">
<stop stop-color="#4AC68D" stop-opacity="0.27"/>
<stop offset="1" stop-color="#04956F" stop-opacity="0.81"/>
</radialGradient>
<radialGradient id="paint3_radial_208_2831" cx="0" cy="0" r="1" gradientUnits="userSpaceOnUse" gradientTransform="translate(55.1749 9.59778) rotate(32.663) scale(657.995)">
<stop stop-color="#2FFF9E"/>
<stop offset="1" stop-color="#C6FFDE" stop-opacity="0.31"/>
</radialGradient>
<radialGradient id="paint4_radial_208_2831" cx="0" cy="0" r="1" gradientUnits="userSpaceOnUse" gradientTransform="translate(196.576 74.9739) rotate(32.663) scale(353.195)">
<stop stop-color="#2FFF9E"/>
<stop offset="1" stop-color="#C6FFDE" stop-opacity="0.31"/>
</radialGradient>
<radialGradient id="paint5_radial_208_2831" cx="0" cy="0" r="1" gradientUnits="userSpaceOnUse" gradientTransform="translate(nan nan) rotate(nan) scale(nan nan)">
<stop offset="0.0989011" stop-color="#770064"/>
<stop offset="1" stop-color="#510404" stop-opacity="0"/>
</radialGradient>
<clipPath id="clip0_208_2831">
<rect width="700" height="320" fill="white"/>
</clipPath>
</defs>
</svg>
